<svg xmlns="http://www.w3.org/2000/svg" xmlns:xlink="http://www.w3.org/1999/xlink" width="256" zoomAndPan="magnify" viewBox="0 0 192 191.999996" height="256" preserveAspectRatio="xMidYMid meet" version="1.0"><defs><g/><clipPath id="e5a7253748"><path d="M 62 111 L 84 111 L 84 134 L 62 134 Z M 62 111 " clip-rule="nonzero"/></clipPath><clipPath id="27550b3676"><path d="M 83.839844 123.941406 L 70.820312 139.453125 L 56.457031 127.402344 L 69.476562 111.890625 Z M 83.839844 123.941406 " clip-rule="nonzero"/></clipPath><clipPath id="9aab52ce52"><path d="M 98.914062 105.976562 L 70.46875 139.875 L 56.105469 127.820312 L 84.550781 93.921875 Z M 98.914062 105.976562 " clip-rule="nonzero"/></clipPath><clipPath id="ea1d796836"><path d="M 66 66 L 89 66 L 89 89 L 66 89 Z M 66 66 " clip-rule="nonzero"/></clipPath><clipPath id="fe87b574f2"><path d="M 72.53125 88.855469 L 62.40625 71.320312 L 78.644531 61.945312 L 88.769531 79.480469 Z M 72.53125 88.855469 " clip-rule="nonzero"/></clipPath><clipPath id="43963fd1f6"><path d="M 84.257812 109.167969 L 62.132812 70.847656 L 78.371094 61.472656 L 100.496094 99.792969 Z M 84.257812 109.167969 " clip-rule="nonzero"/></clipPath><clipPath id="38373fcd5a"><path d="M 97 65 L 123 65 L 123 93 L 97 93 Z M 97 65 " clip-rule="nonzero"/></clipPath><clipPath id="e97d800fa9"><path d="M 97.058594 80.042969 L 114.414062 59.359375 L 128.777344 71.410156 L 111.421875 92.09375 Z M 97.058594 80.042969 " clip-rule="nonzero"/></clipPath><clipPath id="f96e75e68d"><path d="M 86.261719 92.914062 L 114.703125 59.015625 L 129.066406 71.070312 L 100.625 104.964844 Z M 86.261719 92.914062 " clip-rule="nonzero"/></clipPath><clipPath id="b6eb434693"><path d="M 115.980469 30.550781 L 153.480469 30.550781 L 153.480469 68.050781 L 115.980469 68.050781 Z M 115.980469 30.550781 " clip-rule="nonzero"/></clipPath><clipPath id="de937d834a"><path d="M 134.730469 30.550781 C 124.375 30.550781 115.980469 38.945312 115.980469 49.300781 C 115.980469 59.65625 124.375 68.050781 134.730469 68.050781 C 145.085938 68.050781 153.480469 59.65625 153.480469 49.300781 C 153.480469 38.945312 145.085938 30.550781 134.730469 30.550781 Z M 134.730469 30.550781 " clip-rule="nonzero"/></clipPath><clipPath id="178347edbd"><path d="M 46.8125 37.292969 L 76.8125 37.292969 L 76.8125 67.292969 L 46.8125 67.292969 Z M 46.8125 37.292969 " clip-rule="nonzero"/></clipPath><clipPath id="5556b4ae78"><path d="M 61.8125 37.292969 C 53.53125 37.292969 46.8125 44.007812 46.8125 52.292969 C 46.8125 60.578125 53.53125 67.292969 61.8125 67.292969 C 70.097656 67.292969 76.8125 60.578125 76.8125 52.292969 C 76.8125 44.007812 70.097656 37.292969 61.8125 37.292969 Z M 61.8125 37.292969 " clip-rule="nonzero"/></clipPath><clipPath id="b2f2c31c78"><path d="M 48 92.378906 L 70.988281 92.378906 L 70.988281 111.128906 L 48 111.128906 Z M 48 92.378906 " clip-rule="nonzero"/></clipPath><clipPath id="2e976ac7d3"><path d="M 12.328125 84.945312 L 46.078125 84.945312 L 46.078125 118.695312 L 12.328125 118.695312 Z M 12.328125 84.945312 " clip-rule="nonzero"/></clipPath><clipPath id="b2cb5cbcb2"><path d="M 29.203125 84.945312 C 19.882812 84.945312 12.328125 92.503906 12.328125 101.820312 C 12.328125 111.140625 19.882812 118.695312 29.203125 118.695312 C 38.523438 118.695312 46.078125 111.140625 46.078125 101.820312 C 46.078125 92.503906 38.523438 84.945312 29.203125 84.945312 Z M 29.203125 84.945312 " clip-rule="nonzero"/></clipPath><clipPath id="cdb6a36bc0"><path d="M 37.96875 131.449219 L 67.96875 131.449219 L 67.96875 161.449219 L 37.96875 161.449219 Z M 37.96875 131.449219 " clip-rule="nonzero"/></clipPath><clipPath id="0c4b19514c"><path d="M 52.96875 131.449219 C 44.683594 131.449219 37.96875 138.164062 37.96875 146.449219 C 37.96875 154.730469 44.683594 161.449219 52.96875 161.449219 C 61.253906 161.449219 67.96875 154.730469 67.96875 146.449219 C 67.96875 138.164062 61.253906 131.449219 52.96875 131.449219 Z M 52.96875 131.449219 " clip-rule="nonzero"/></clipPath></defs><g clip-path="url(#e5a7253748)"><g clip-path="url(#27550b3676)"><g clip-path="url(#9aab52ce52)"><path fill="#cccccc" d="M 63.671875 133.632812 L 76.65625 132.496094 L 71.363281 128.054688 L 93.578125 101.578125 L 90.050781 98.617188 L 67.832031 125.09375 L 62.539062 120.648438 Z M 63.671875 133.632812 " fill-opacity="1" fill-rule="nonzero"/></g></g></g><g fill="#333333" fill-opacity="1"><g transform="translate(70.608014, 120.946788)"><g><path d="M 2.234375 -18.40625 C 2.234375 -22.332031 2.972656 -25.753906 4.453125 -28.671875 C 5.929688 -31.597656 8.039062 -33.859375 10.78125 -35.453125 C 13.53125 -37.054688 16.734375 -37.859375 20.390625 -37.859375 C 24.066406 -37.859375 27.273438 -37.0625 30.015625 -35.46875 C 32.753906 -33.875 34.867188 -31.617188 36.359375 -28.703125 C 37.847656 -25.796875 38.59375 -22.414062 38.59375 -18.5625 C 38.59375 -14.800781 37.859375 -11.46875 36.390625 -8.5625 C 34.929688 -5.664062 32.835938 -3.40625 30.109375 -1.78125 C 27.390625 -0.164062 24.179688 0.640625 20.484375 0.640625 C 16.796875 0.640625 13.570312 -0.160156 10.8125 -1.765625 C 8.050781 -3.367188 5.929688 -5.613281 4.453125 -8.5 C 2.972656 -11.382812 2.234375 -14.6875 2.234375 -18.40625 Z M 20.390625 -31.40625 C 18.253906 -31.40625 16.40625 -30.859375 14.84375 -29.765625 C 13.28125 -28.679688 12.082031 -27.171875 11.25 -25.234375 C 10.414062 -23.304688 10 -21.097656 10 -18.609375 C 10 -16.117188 10.40625 -13.910156 11.21875 -11.984375 C 12.03125 -10.054688 13.222656 -8.546875 14.796875 -7.453125 C 16.378906 -6.359375 18.257812 -5.8125 20.4375 -5.8125 C 22.59375 -5.8125 24.453125 -6.351562 26.015625 -7.4375 C 27.578125 -8.519531 28.769531 -10.035156 29.59375 -11.984375 C 30.414062 -13.929688 30.828125 -16.175781 30.828125 -18.71875 C 30.828125 -21.15625 30.414062 -23.332031 29.59375 -25.25 C 28.769531 -27.175781 27.578125 -28.679688 26.015625 -29.765625 C 24.453125 -30.859375 22.578125 -31.40625 20.390625 -31.40625 Z M 20.390625 -31.40625 "/></g></g></g><g fill="#333333" fill-opacity="1"><g transform="translate(111.43307, 120.946788)"><g><path d="M 11.40625 -30.921875 L 11.40625 -22.421875 L 27.046875 -22.421875 L 27.046875 -16.125 L 11.40625 -16.125 L 11.40625 -6.296875 L 29.328125 -6.296875 L 29.328125 0 L 3.90625 0 L 3.90625 -37.21875 L 28.4375 -37.21875 L 28.4375 -30.921875 Z M 11.40625 -30.921875 "/></g></g></g><g fill="#333333" fill-opacity="1"><g transform="translate(143.245137, 120.946788)"><g><path d="M 20.359375 -31.40625 C 17.128906 -31.40625 14.59375 -30.363281 12.75 -28.28125 C 10.914062 -26.195312 10 -23.117188 10 -19.046875 C 10 -16.304688 10.390625 -13.941406 11.171875 -11.953125 C 11.960938 -9.972656 13.128906 -8.453125 14.671875 -7.390625 C 16.210938 -6.335938 18.082031 -5.8125 20.28125 -5.8125 C 21.863281 -5.8125 23.421875 -6.046875 24.953125 -6.515625 C 26.484375 -6.992188 27.796875 -7.679688 28.890625 -8.578125 L 28.890625 -13.6875 L 20.21875 -13.6875 L 20.21875 -19.984375 L 36.390625 -19.984375 L 36.390625 -5.15625 C 35.253906 -4.070312 33.832031 -3.085938 32.125 -2.203125 C 30.414062 -1.328125 28.539062 -0.632812 26.5 -0.125 C 24.457031 0.382812 22.394531 0.640625 20.3125 0.640625 C 16.519531 0.640625 13.265625 -0.164062 10.546875 -1.78125 C 7.828125 -3.40625 5.757812 -5.671875 4.34375 -8.578125 C 2.9375 -11.492188 2.234375 -14.875 2.234375 -18.71875 C 2.234375 -22.5625 2.984375 -25.925781 4.484375 -28.8125 C 5.992188 -31.695312 8.117188 -33.925781 10.859375 -35.5 C 13.609375 -37.070312 16.773438 -37.859375 20.359375 -37.859375 C 24.609375 -37.859375 28.007812 -36.941406 30.5625 -35.109375 C 33.125 -33.285156 34.910156 -30.5625 35.921875 -26.9375 L 28.4375 -25.546875 C 27.894531 -27.453125 26.945312 -28.90625 25.59375 -29.90625 C 24.238281 -30.90625 22.492188 -31.40625 20.359375 -31.40625 Z M 20.359375 -31.40625 "/></g></g></g><g clip-path="url(#ea1d796836)"><g clip-path="url(#fe87b574f2)"><g clip-path="url(#43963fd1f6)"><path fill="#cccccc" d="M 70.320312 66.59375 L 66.949219 79.183594 L 72.933594 75.726562 L 90.214844 105.660156 L 94.207031 103.355469 L 76.925781 73.421875 L 82.910156 69.96875 Z M 70.320312 66.59375 " fill-opacity="1" fill-rule="nonzero"/></g></g></g><g clip-path="url(#38373fcd5a)"><g clip-path="url(#e97d800fa9)"><g clip-path="url(#f96e75e68d)"><path fill="#cccccc" d="M 121.5 65.253906 L 108.515625 66.390625 L 113.808594 70.835938 L 91.59375 97.3125 L 95.125 100.273438 L 117.339844 73.796875 L 122.636719 78.242188 Z M 121.5 65.253906 " fill-opacity="1" fill-rule="nonzero"/></g></g></g><g clip-path="url(#b6eb434693)"><g clip-path="url(#de937d834a)"><path stroke-linecap="butt" transform="matrix(0.75, 0, 0, 0.75, 115.982016, 30.551867)" fill="none" stroke-linejoin="miter" d="M 24.997939 -0.00144773 C 11.190647 -0.00144773 -0.0020624 11.191261 -0.0020624 24.998554 C -0.0020624 38.805846 11.190647 49.998555 24.997939 49.998555 C 38.805232 49.998555 49.997941 38.805846 49.997941 24.998554 C 49.997941 11.191261 38.805232 -0.00144773 24.997939 -0.00144773 Z M 24.997939 -0.00144773 " stroke="#315daf" stroke-width="20" stroke-opacity="1" stroke-miterlimit="4"/></g></g><g clip-path="url(#178347edbd)"><g clip-path="url(#5556b4ae78)"><path stroke-linecap="butt" transform="matrix(0.75, 0, 0, 0.75, 46.813955, 37.29385)" fill="none" stroke-linejoin="miter" d="M 19.998061 -0.0011752 C 8.956394 -0.0011752 -0.0019401 8.95195 -0.0019401 19.998826 C -0.0019401 31.045702 8.956394 39.998827 19.998061 39.998827 C 31.044937 39.998827 39.998062 31.045702 39.998062 19.998826 C 39.998062 8.95195 31.044937 -0.0011752 19.998061 -0.0011752 Z M 19.998061 -0.0011752 " stroke="#60a981" stroke-width="20" stroke-opacity="1" stroke-miterlimit="4"/></g></g><g clip-path="url(#b2f2c31c78)"><path fill="#cccccc" d="M 48.007812 101.914062 L 57.222656 111.128906 L 57.222656 104.214844 L 91.785156 104.214844 L 91.785156 99.609375 L 57.222656 99.609375 L 57.222656 92.695312 Z M 48.007812 101.914062 " fill-opacity="1" fill-rule="nonzero"/></g><g clip-path="url(#2e976ac7d3)"><g clip-path="url(#b2cb5cbcb2)"><path stroke-linecap="butt" transform="matrix(0.75, 0, 0, 0.75, 12.327902, 84.946783)" fill="none" stroke-linejoin="miter" d="M 22.500299 -0.00196025 C 10.073215 -0.00196025 0.000297401 10.076165 0.000297401 22.498041 C 0.000297401 34.925125 10.073215 44.998043 22.500299 44.998043 C 34.927383 44.998043 45.0003 34.925125 45.0003 22.498041 C 45.0003 10.076165 34.927383 -0.00196025 22.500299 -0.00196025 Z M 22.500299 -0.00196025 " stroke="#e64c4c" stroke-width="20" stroke-opacity="1" stroke-miterlimit="4"/></g></g><g clip-path="url(#cdb6a36bc0)"><g clip-path="url(#0c4b19514c)"><path stroke-linecap="butt" transform="matrix(0.75, 0, 0, 0.75, 37.969218, 131.448126)" fill="none" stroke-linejoin="miter" d="M 19.999378 0.00145675 C 8.952502 0.00145675 -0.000624463 8.954583 -0.000624463 20.001459 C -0.000624463 31.043127 8.952502 40.001462 19.999378 40.001462 C 31.046254 40.001462 39.999381 31.043127 39.999381 20.001459 C 39.999381 8.954583 31.046254 0.00145675 19.999378 0.00145675 Z M 19.999378 0.00145675 " stroke="#cccccc" stroke-width="20" stroke-opacity="1" stroke-miterlimit="4"/></g></g></svg>